<?xml version="1.0" standalone="no"?>
<!DOCTYPE svg PUBLIC "-//W3C//DTD SVG 20010904//EN"
 "http://www.w3.org/TR/2001/REC-SVG-20010904/DTD/svg10.dtd">
<svg version="1.0" xmlns="http://www.w3.org/2000/svg"
 width="728.000000pt" height="724.000000pt" viewBox="0 0 728.000000 724.000000"
 preserveAspectRatio="xMidYMid meet">
<metadata>
Created by potrace 1.16, written by Peter Selinger 2001-2019
</metadata>
<g transform="translate(0.000000,724.000000) scale(0.100000,-0.100000)"
fill="#000000" stroke="none">
<path d="M5412 6409 c-28 -52 -104 -151 -153 -201 -129 -130 -461 -219 -874
-233 -411 -14 -677 -44 -940 -104 -328 -76 -558 -221 -687 -434 -40 -65 -58
-130 -58 -206 0 -41 4 -49 24 -59 32 -14 35 -9 23 38 -9 33 -7 53 11 116 27
91 69 160 146 238 31 32 53 63 49 68 -3 7 -1 8 5 4 14 -9 85 38 74 49 -4 5 -2
5 5 2 17 -10 176 75 160 86 -8 5 -5 6 9 3 11 -4 47 3 80 14 32 12 97 30 144
41 47 11 103 24 125 29 151 36 370 58 675 70 304 11 324 13 525 41 217 31 380
85 493 166 34 24 62 47 62 51 1 4 21 30 46 57 25 28 57 71 70 97 13 26 28 49
34 53 5 3 26 -10 47 -30 27 -26 31 -33 14 -25 -17 9 -26 9 -34 1 -8 -8 -6 -11
6 -11 9 0 17 -4 17 -10 0 -5 -9 -10 -20 -10 -11 0 -20 -7 -20 -15 0 -20 -17
-19 -29 3 -8 14 -11 14 -12 2 -1 -8 -1 -21 0 -28 1 -8 -6 -23 -15 -33 -14 -15
-20 -17 -26 -7 -6 8 -7 4 -3 -11 6 -19 4 -23 -9 -18 -10 4 -16 1 -16 -8 0 -9
-6 -12 -16 -8 -13 5 -15 2 -10 -14 8 -24 -14 -46 -37 -37 -8 3 -18 0 -23 -7
-4 -8 -3 -10 4 -5 8 4 10 2 6 -7 -3 -9 -13 -13 -25 -10 -21 6 -27 -12 -6 -20
7 -3 4 -6 -6 -6 -21 -1 -49 -26 -40 -35 4 -3 0 -6 -7 -6 -7 0 -28 -11 -46 -25
-18 -14 -39 -25 -46 -25 -8 0 -23 -8 -34 -18 -32 -29 -150 -84 -189 -88 -5 0
-35 -6 -65 -12 -66 -14 -339 -60 -430 -72 -138 -19 -205 -31 -247 -45 -24 -8
-51 -15 -60 -15 -41 0 -217 -61 -350 -121 -24 -10 -49 -19 -57 -19 -7 0 -25
-9 -39 -20 -14 -11 -30 -20 -37 -20 -7 0 -23 -9 -37 -20 -14 -11 -33 -20 -43
-20 -10 0 -29 -9 -43 -20 -14 -11 -30 -20 -36 -20 -5 0 -27 -11 -47 -25 -20
-14 -42 -25 -49 -25 -6 0 -20 -9 -30 -20 -10 -11 -23 -19 -29 -18 -16 3 -212
-98 -305 -156 -22 -15 -48 -26 -56 -26 -9 0 -20 -12 -25 -26 -6 -14 -14 -23
-18 -20 -5 3 -30 -1 -58 -8 l-49 -13 65 -7 c80 -9 324 -60 404 -84 l59 -18
-43 -28 c-66 -44 -41 -40 56 8 157 77 437 161 639 190 121 17 151 18 165 1 9
-11 6 -12 -12 -8 -23 5 -23 5 -3 -11 l20 -17 -20 5 c-18 5 -20 0 -23 -59 -2
-35 -7 -79 -13 -97 -12 -42 -12 -498 0 -498 12 0 20 -45 46 -270 10 -86 16
-111 24 -105 5 3 11 -2 15 -10 3 -9 0 -15 -9 -15 -8 0 -15 -9 -15 -20 0 -11 6
-19 13 -18 8 2 15 -26 21 -97 5 -55 13 -103 18 -106 5 -3 7 -82 4 -185 -5
-214 -14 -303 -27 -283 -7 10 -8 6 -3 -13 3 -16 0 -35 -11 -51 -12 -18 -13
-26 -4 -29 8 -3 -2 -25 -27 -62 -21 -32 -52 -84 -69 -115 -23 -43 -36 -57 -55
-59 -19 -1 -21 0 -10 7 8 6 11 13 7 17 -4 4 -16 -1 -28 -11 -17 -17 -22 -17
-30 -5 -9 13 -10 13 -8 0 4 -36 -2 -50 -20 -50 -29 0 -84 -22 -72 -29 6 -4 -4
-7 -22 -7 -21 0 -41 -8 -55 -22 -12 -12 -31 -22 -41 -22 -11 0 -23 -5 -26 -10
-3 -5 -11 -10 -17 -10 -7 0 -6 6 2 15 10 13 9 15 -9 15 -14 0 -21 -6 -21 -20
0 -11 -4 -20 -10 -20 -5 0 -9 5 -7 11 1 6 -4 14 -10 16 -7 3 -13 -2 -13 -10 0
-15 -27 -23 -112 -32 -18 -3 -53 -9 -78 -15 -60 -15 -146 -30 -194 -35 -21 -2
-43 -10 -47 -17 -7 -10 -9 -10 -9 2 -1 12 -2 12 -10 -2 -8 -12 -19 -15 -50
-11 -26 4 -40 2 -40 -6 0 -6 -3 -10 -7 -9 -11 2 -151 -22 -188 -32 -220 -63
-395 -87 -725 -100 -140 -5 -279 -9 -308 -9 -30 0 -72 -5 -93 -11 -22 -6 -49
-8 -60 -5 -11 4 -27 1 -35 -6 -20 -16 -107 -33 -174 -32 -30 0 -44 -2 -30 -4
33 -6 50 -23 23 -23 -66 0 -753 216 -797 251 -14 11 -36 43 -50 72 -14 28 -25
46 -26 38 0 -8 12 -38 27 -68 24 -48 35 -58 88 -82 33 -16 85 -37 115 -46 30
-10 71 -30 90 -44 19 -15 58 -42 87 -60 42 -26 54 -39 59 -67 6 -35 38 -84 55
-84 5 0 18 9 30 21 l20 20 67 -37 c37 -21 92 -54 122 -74 30 -21 82 -51 115
-67 83 -42 288 -118 358 -134 67 -14 80 -25 31 -25 -21 0 -29 3 -21 9 7 5 -4
7 -30 5 -23 -2 -39 1 -36 5 3 5 -10 6 -28 2 -25 -4 -30 -3 -19 4 9 6 10 11 3
11 -6 0 -19 3 -29 7 -11 4 -15 3 -11 -4 5 -7 0 -9 -13 -6 -11 3 -23 9 -26 14
-3 5 -20 9 -39 9 -19 0 -37 5 -41 11 -3 6 -15 9 -25 6 -11 -3 -17 -1 -13 4 3
5 0 9 -6 9 -7 0 -26 6 -43 14 -18 7 -60 24 -94 37 -34 13 -59 27 -56 33 4 5
-1 7 -10 3 -9 -3 -40 4 -69 17 -49 22 -168 60 -263 85 l-40 10 35 -30 c19 -16
48 -32 63 -36 19 -4 25 -8 16 -14 -7 -4 -25 -1 -41 7 -53 27 -28 6 28 -25 31
-17 61 -28 67 -24 5 3 7 2 4 -4 -3 -5 8 -18 26 -28 42 -24 47 -33 40 -70 l-6
-30 21 19 c12 11 22 25 22 33 0 7 3 13 6 13 4 0 75 -38 158 -84 160 -89 315
-157 461 -201 85 -26 109 -40 99 -56 -10 -17 44 -323 83 -469 8 -30 20 -84 28
-120 7 -36 23 -90 35 -120 29 -73 35 -100 21 -100 -6 0 -11 -5 -11 -11 0 -6 7
-9 15 -5 11 4 15 -2 15 -24 0 -27 -2 -29 -39 -28 -45 0 -103 -31 -128 -69
l-16 -24 -44 50 c-32 37 -56 54 -86 62 -89 24 -146 7 -170 -53 l-13 -31 -82
135 c-46 74 -89 135 -97 135 -8 0 -15 -2 -15 -4 0 -8 54 -110 72 -136 l20 -27
-31 -75 c-32 -77 -41 -152 -18 -161 7 -2 30 4 52 15 22 10 43 17 46 15 4 -2 5
-22 2 -44 -5 -32 -3 -40 10 -40 16 0 22 2 114 39 47 19 60 20 115 11 35 -5 66
-10 71 -10 4 0 7 -9 7 -20 0 -31 27 -35 84 -11 28 11 72 21 97 21 183 0 348
141 618 525 50 72 92 134 94 140 2 5 61 -9 132 -30 l128 -40 19 -42 c21 -48
112 -188 127 -198 6 -3 8 -24 4 -50 -4 -29 -1 -50 7 -60 15 -18 95 -20 136 -4
88 33 99 -38 29 -174 -25 -48 -45 -96 -45 -105 0 -42 45 -52 138 -30 42 9 56
8 84 -5 18 -8 52 -20 76 -26 33 -9 45 -19 56 -44 7 -18 29 -47 49 -65 44 -42
62 -38 119 29 41 49 41 49 102 49 54 0 66 -4 104 -35 70 -55 78 -54 129 4 24
28 51 51 59 51 9 0 48 15 87 34 128 60 332 277 529 565 l112 164 22 -109 c37
-182 75 -274 154 -370 47 -57 50 -64 39 -88 -10 -22 -9 -29 7 -47 15 -17 26
-20 59 -15 54 8 51 8 129 -7 52 -10 70 -17 72 -30 1 -10 8 -25 15 -34 16 -18
77 -13 127 13 62 31 332 8 332 -28 0 -14 27 -9 40 7 6 8 35 25 63 39 69 32
107 65 113 99 l4 27 -46 -35 c-25 -20 -55 -40 -66 -46 -19 -10 -19 -9 -4 20
30 57 14 96 -51 130 -89 46 -219 -71 -156 -141 15 -17 13 -18 -55 -18 -39 0
-74 5 -77 10 -3 6 -2 10 4 10 5 0 13 10 16 21 6 17 9 18 16 8 6 -11 9 -10 15
5 5 14 9 15 15 4 6 -9 9 -9 9 -1 0 6 -6 18 -13 25 -7 7 -26 31 -42 52 -52 69
-136 82 -174 27 -22 -33 -61 -114 -61 -128 0 -6 -9 -9 -19 -6 -12 3 -23 21
-32 51 -19 71 -64 131 -100 132 -8 0 -33 -18 -55 -39 -45 -46 -44 -46 -110 40
-70 92 -131 265 -149 427 -7 62 -6 65 45 164 64 125 88 192 96 277 8 75 31
128 100 221 46 62 184 215 184 203 0 -3 -10 -22 -22 -42 l-22 -36 22 19 c21
18 22 18 32 -8 5 -15 10 -32 10 -37 0 -5 5 -9 11 -9 6 0 2 -12 -9 -27 -37 -54
-64 -124 -77 -200 -19 -104 -18 -126 5 -218 22 -85 36 -107 90 -136 l35 -19
-30 6 c-23 4 -27 3 -15 -5 9 -7 11 -14 5 -18 -5 -5 -10 -19 -11 -33 -3 -59
-12 -103 -24 -110 -8 -5 -15 -34 -17 -67 -2 -32 -7 -80 -10 -108 -4 -36 -1
-58 12 -81 17 -31 20 -33 100 -39 112 -10 250 18 286 57 9 10 24 18 33 18 9 0
16 5 16 10 0 6 5 10 11 10 13 0 48 41 49 57 0 7 6 16 14 20 19 11 46 67 46 96
0 12 4 27 9 32 6 6 17 37 26 70 19 68 22 357 4 363 -6 3 -6 8 0 16 7 8 6 20
-3 38 -8 16 -10 31 -5 39 5 8 9 45 9 82 0 108 -50 247 -107 297 -36 32 -103
54 -140 47 -14 -2 -21 -1 -16 3 4 5 19 10 33 13 23 4 23 4 -5 6 -26 2 -27 3
-10 11 19 8 18 9 -4 9 -15 1 -37 16 -58 41 -19 22 -43 40 -53 40 -12 0 -17 5
-14 13 4 12 -52 72 -69 72 -4 0 -12 6 -16 14 -5 8 -18 12 -30 8 -15 -3 -25 1
-31 14 -6 11 -21 19 -35 19 -16 0 -25 6 -25 15 0 9 -11 20 -25 25 -14 5 -25
13 -25 18 0 5 -16 16 -35 25 -23 11 -35 23 -33 33 2 12 -10 20 -42 28 -25 7
-54 18 -65 25 l-20 13 20 -7 c74 -25 429 -68 492 -61 112 13 163 60 163 149 0
60 3 59 132 -63 164 -154 266 -304 348 -509 25 -63 35 -79 40 -65 6 16 8 14
18 -11 24 -68 10 4 -17 84 -38 110 -54 148 -91 211 -21 35 -26 52 -17 55 6 2
32 9 57 15 71 18 125 37 161 58 19 11 52 30 74 42 67 39 133 110 201 217 77
124 110 206 130 332 45 275 -43 617 -252 976 -68 117 -184 340 -272 525 -183
380 -211 463 -219 640 -8 175 19 281 103 403 39 56 43 93 14 130 -39 49 -105
56 -218 22 -26 -8 -50 -15 -53 -15 -6 0 20 70 70 184 12 28 19 57 15 69 -6 18
-13 19 -93 15 -103 -5 -166 -34 -237 -111 -26 -27 -50 -45 -54 -40 -4 4 -13
25 -20 46 -15 48 -71 122 -138 180 -41 37 -60 47 -88 47 -29 0 -38 -5 -52 -31z
m148 -548 c0 -5 -5 -11 -11 -13 -7 -2 -10 -123 -9 -386 0 -257 -3 -382 -10
-382 -5 0 -10 -22 -10 -50 0 -28 -4 -58 -9 -68 -5 -9 -16 -48 -26 -87 -9 -38
-23 -80 -31 -92 -8 -12 -14 -34 -14 -48 0 -16 -6 -25 -15 -25 -13 0 -19 -11
-17 -31 1 -3 -28 -34 -64 -68 -35 -34 -64 -69 -64 -77 0 -8 -10 -14 -24 -14
-14 0 -27 -4 -30 -9 -13 -21 -192 -35 -250 -19 -16 4 -42 20 -58 35 -21 20
-31 24 -37 15 -5 -9 -16 -5 -41 13 -19 14 -41 25 -51 25 -9 0 -19 9 -22 20 -3
11 -19 25 -36 31 -16 6 -33 19 -36 30 -4 10 -15 19 -25 19 -13 0 -17 5 -14 15
4 10 -3 18 -19 24 -14 6 -30 19 -36 29 -6 11 -31 32 -56 46 -25 15 -45 31 -45
36 0 6 -4 9 -9 7 -12 -3 -91 45 -91 55 0 5 -8 8 -19 8 -10 0 -31 10 -47 23
-16 12 -31 20 -34 18 -3 -2 -18 28 -33 65 -73 181 -118 244 -175 244 -34 0
-160 -18 -186 -26 -16 -5 -13 2 14 37 137 179 287 274 503 319 50 10 238 37
417 60 179 22 349 47 379 56 68 19 209 90 276 138 51 37 65 43 65 27z m536
-1233 c11 -24 35 -70 52 -104 46 -89 93 -239 99 -320 15 -194 -55 -395 -187
-534 -63 -67 -196 -170 -219 -170 -9 0 -3 9 15 23 52 38 100 87 86 87 -7 0
-10 5 -6 11 5 8 9 8 14 -1 4 -7 13 -9 20 -5 9 6 9 10 -1 16 -10 7 -11 11 -3
17 7 4 19 23 27 42 9 19 16 29 16 23 1 -7 6 -13 12 -13 6 0 9 7 6 15 -4 8 -2
17 3 20 6 4 10 15 10 26 0 11 7 22 15 25 8 4 15 11 15 17 0 6 7 18 15 27 8 9
17 31 19 49 2 19 8 36 13 40 37 24 40 263 7 486 -4 22 -7 50 -8 63 0 12 -4 22
-8 22 -5 0 -8 9 -8 21 0 11 -4 18 -9 14 -6 -3 -8 12 -6 36 4 35 1 42 -16 46
-14 4 -18 11 -14 24 4 11 2 19 -4 19 -6 0 -11 5 -11 10 0 6 8 10 18 10 12 0
26 -16 38 -42z m615 -488 c14 -12 72 -146 103 -244 92 -281 87 -555 -12 -746
-28 -54 -107 -171 -144 -211 -36 -40 -146 -109 -174 -109 -16 0 -16 1 -1 18
19 20 23 37 7 27 -5 -3 -10 -2 -10 4 0 5 4 12 9 16 5 3 13 34 16 70 4 36 11
68 16 71 5 3 9 18 9 33 0 16 7 34 15 41 8 7 15 18 15 25 0 7 7 26 15 41 8 16
15 40 15 54 0 14 7 34 15 44 8 11 15 36 15 56 0 20 4 40 8 45 14 16 32 90 32
131 0 22 5 57 10 79 6 22 15 123 21 225 10 181 7 254 -19 352 -13 48 -3 57 17
16 8 -18 18 -35 22 -38z m-2082 -107 c110 -95 166 -141 241 -198 36 -26 75
-58 88 -69 l23 -21 -103 -50 c-94 -45 -105 -54 -125 -95 -19 -37 -23 -40 -23
-19 0 26 -35 64 -50 54 -4 -3 -6 4 -3 14 3 11 -3 44 -13 73 -16 48 -18 50 -25
28 -3 -14 -5 11 -3 55 3 55 1 74 -5 60 -8 -17 -10 -16 -10 13 -1 18 -7 41 -13
52 -11 17 -10 22 2 30 13 8 12 10 -4 10 -11 0 -16 3 -13 6 3 4 0 15 -7 26 -8
11 -12 27 -9 37 3 11 -5 27 -18 40 -13 11 -19 21 -15 21 4 0 42 -30 85 -67z
m-1134 -1385 c-11 -39 -73 -133 -86 -133 -17 0 -83 125 -72 136 7 7 40 11 136
17 25 2 28 -1 22 -20z m2015 -467 c0 -3 -4 1 -10 9 -13 21 -23 5 -11 -18 13
-24 6 -87 -21 -197 -23 -94 -29 -105 -40 -79 -6 14 -7 13 -3 -8 3 -15 1 -29
-4 -33 -16 -9 -24 61 -18 139 8 86 30 164 60 209 l22 33 12 -24 c7 -13 13 -27
13 -31z m-1623 -143 c6 -7 11 -48 12 -90 l1 -76 -33 -7 c-17 -4 -74 -20 -126
-36 -52 -16 -96 -27 -98 -25 -2 2 13 38 33 80 21 42 39 74 42 72 2 -3 18 8 36
25 17 16 39 32 49 35 9 3 17 9 17 14 0 8 20 16 46 19 6 0 16 -5 21 -11z m-17
-217 c0 -5 -12 -12 -26 -15 -15 -4 -24 -9 -21 -13 3 -3 -11 -21 -32 -42 -34
-34 -120 -140 -149 -186 -7 -11 -22 -35 -33 -52 -12 -18 -25 -33 -30 -33 -4 0
-5 -8 -2 -17 5 -12 2 -15 -10 -10 -11 4 -17 1 -17 -9 0 -8 -9 -24 -20 -36
l-20 -22 0 22 c0 19 59 198 106 323 17 43 20 46 78 63 34 9 75 21 91 25 41 12
85 13 85 2z m122 -451 c-6 -17 -8 -29 -3 -26 4 3 7 -26 6 -63 0 -49 -5 -72
-17 -84 -12 -12 -15 -27 -11 -57 4 -26 0 -56 -11 -85 -10 -24 -15 -48 -12 -53
3 -5 -11 -8 -32 -6 -20 1 -29 0 -19 -3 9 -2 17 -8 17 -13 0 -5 3 -17 7 -27 5
-14 1 -13 -20 6 -15 14 -27 19 -27 12 0 -6 6 -14 14 -17 8 -3 16 -15 19 -26 3
-11 10 -17 16 -13 6 3 11 2 11 -3 0 -21 -14 -19 -39 8 -64 69 -127 81 -175 33
-32 -32 -59 -90 -53 -114 9 -34 -9 -20 -25 18 -8 21 -34 62 -57 91 -35 43 -50
53 -83 58 l-40 7 7 96 c4 53 9 100 12 104 3 4 21 -7 41 -24 46 -40 128 -79
169 -79 89 0 190 84 271 225 13 22 25 48 29 58 3 10 8 16 10 13 3 -3 0 -19 -5
-36z m-2266 -292 c-24 -34 -19 -44 9 -18 19 18 32 22 63 18 49 -7 92 -34 92
-59 0 -16 -66 -69 -86 -69 -14 0 -179 -74 -185 -83 -15 -22 -19 16 -5 60 35
116 70 173 107 173 19 0 19 -1 5 -22z m331 -28 c-4 -17 -2 -20 13 -15 13 4 24
-2 35 -19 27 -41 4 -71 -92 -122 -46 -23 -85 -39 -87 -35 -8 13 14 83 40 128
35 61 103 108 91 63z m3303 -2 c25 -27 26 -60 3 -80 -41 -37 -153 -64 -153
-38 0 23 31 68 69 103 48 43 54 44 81 15z m240 1 c0 -6 -5 -20 -11 -32 -9 -17
-6 -16 14 6 13 15 31 27 40 27 16 0 67 -54 67 -71 0 -48 -98 -122 -183 -138
-46 -8 -47 -8 -47 18 1 32 39 128 69 170 22 30 51 42 51 20z m363 -23 c46 -19
71 -50 63 -80 -7 -27 -65 -107 -81 -113 -18 -6 -115 87 -115 111 0 38 42 79
98 95 1 1 17 -5 35 -13z m-2473 -44 c0 -5 -9 -17 -20 -27 -11 -10 -18 -20 -16
-23 3 -2 12 3 21 12 17 17 43 21 61 8 13 -9 44 -54 44 -64 0 -20 -135 -68
-192 -68 -19 0 -28 5 -28 16 0 24 58 122 83 139 24 16 47 20 47 7z m308 -39
c111 -69 117 -138 23 -244 -34 -39 -38 -41 -60 -28 -26 16 -54 66 -71 127 -14
55 0 102 41 137 36 30 33 29 67 8z m378 -38 c38 -29 53 -80 33 -116 -17 -33
-72 -99 -82 -99 -5 0 -14 6 -21 13 -7 6 -32 29 -55 50 -34 32 -41 44 -41 76 0
42 16 62 70 85 48 21 58 20 96 -9z"/>
<path d="M1335 5309 c-16 -4 -22 -7 -12 -8 9 0 17 -5 17 -10 0 -4 27 -12 61
-15 69 -8 191 -43 200 -58 3 -5 10 -10 15 -10 40 -4 56 -21 32 -32 -7 -3 1 -4
17 -1 17 2 24 2 18 -1 -9 -4 -7 -13 7 -32 22 -30 17 -77 -7 -68 -8 3 -12 2 -9
-3 3 -4 -17 -18 -44 -31 -28 -13 -48 -25 -47 -27 2 -2 33 10 68 26 35 15 110
45 167 66 57 21 101 39 99 42 -3 2 -23 -3 -46 -11 -33 -11 -39 -11 -31 -1 13
16 3 22 -145 93 -134 65 -283 99 -360 81z"/>
<path d="M2210 4919 c110 -13 292 -46 398 -73 98 -25 142 -53 142 -90 0 -32
-137 -162 -313 -295 -53 -40 -97 -76 -97 -78 0 -6 14 3 120 75 158 108 279
213 307 266 31 59 -16 112 -125 140 -102 27 -372 66 -442 65 l-65 -2 75 -8z"/>
<path d="M998 4222 c18 -14 20 -20 10 -30 -9 -9 -7 -12 12 -12 23 0 23 0 4
-15 -10 -8 -28 -15 -38 -15 -17 0 -18 -2 -4 -17 41 -48 40 -57 -12 -111 -56
-58 -126 -194 -160 -312 -18 -59 -23 -110 -27 -242 -6 -179 4 -266 37 -344
l20 -47 -43 6 c-119 16 -202 65 -213 125 -4 20 -9 31 -11 25 -9 -24 18 -80 48
-102 58 -43 135 -63 270 -68 l126 -6 11 59 c13 63 42 301 63 504 17 162 17
399 -1 470 -16 69 -48 126 -78 140 -34 15 -40 12 -14 -8z m69 -579 c-4 -82
-13 -202 -22 -268 -8 -66 -15 -123 -15 -127 0 -21 -42 -4 -68 28 -73 88 -69
250 8 404 28 55 74 110 93 110 7 0 8 -50 4 -147z"/>
<path d="M3267 4156 c-66 -28 -110 -59 -173 -124 -57 -60 -96 -125 -91 -154 2
-13 2 -17 0 -10 -9 24 -22 11 -20 -20 0 -18 -2 -40 -4 -48 -3 -8 -4 -12 -2 -7
3 4 9 7 14 7 11 0 1 -49 -13 -67 -5 -7 -5 -14 1 -17 5 -3 12 0 14 6 4 10 6 10
6 0 1 -7 -8 -20 -18 -29 -11 -9 -18 -20 -15 -24 3 -5 -4 -28 -15 -51 -67 -149
-114 -344 -124 -516 -5 -76 4 -90 69 -113 38 -14 43 -18 24 -19 -23 -1 -23 -2
-5 -10 17 -7 16 -9 -10 -10 l-30 -1 25 -11 c32 -13 436 -3 505 12 28 6 93 24
145 40 52 15 124 35 160 43 74 17 239 93 247 113 5 12 -5 107 -27 267 -18 134
-147 473 -218 577 -47 68 -160 155 -226 175 -73 22 -151 19 -219 -9z m116
-108 c-144 -157 -199 -475 -133 -773 23 -105 65 -211 93 -234 9 -7 17 -19 17
-26 0 -29 -330 -32 -458 -5 l-52 12 0 66 c0 173 47 355 138 534 101 199 215
336 343 411 74 43 80 45 52 15z m253 -275 c67 -73 79 -112 79 -258 0 -118 -2
-134 -25 -180 -17 -34 -37 -56 -62 -70 -36 -19 -39 -19 -70 -2 -40 21 -72 66
-100 138 -17 46 -19 69 -15 149 6 115 26 184 66 228 42 46 82 44 127 -5z"/>
<path d="M2240 3895 c0 -68 -28 -177 -50 -190 -17 -11 -31 -15 -77 -22 -18 -3
-33 -11 -33 -18 0 -8 -17 -16 -40 -20 -22 -4 -40 -11 -40 -15 0 -5 -15 -12
-32 -15 -18 -4 -38 -12 -45 -17 -7 -5 -22 -7 -33 -3 -20 6 -21 5 -11 -14 15
-28 2 -27 -32 3 -22 19 -27 30 -22 48 7 20 57 89 92 126 7 7 13 16 13 20 -1
16 -104 -104 -117 -135 -13 -31 -12 -37 6 -66 24 -38 41 -50 126 -82 119 -44
169 -34 221 44 49 75 77 176 82 299 2 61 2 112 -2 112 -3 0 -6 -25 -6 -55z"/>
<path d="M1688 1946 c-102 -42 -248 -141 -248 -169 0 -8 3 -9 8 -1 4 6 15 13
25 17 15 6 16 4 7 -13 -14 -25 -13 -37 2 -22 18 18 33 15 17 -4 -7 -9 -9 -18
-3 -22 5 -4 10 -23 12 -42 7 -87 67 -289 87 -291 6 0 1 -4 -10 -9 -17 -7 -17
-9 -2 -9 9 -1 17 -6 17 -12 0 -10 -54 -6 -102 7 -10 3 -18 1 -18 -4 0 -17 125
-45 177 -40 72 7 98 29 142 122 98 207 117 273 106 363 -10 80 -19 98 -62 127
-46 32 -81 32 -155 2z"/>
<path d="M5151 1775 c-24 -42 -46 -128 -37 -150 20 -54 196 52 196 119 0 34
-34 58 -88 64 -47 4 -49 3 -71 -33z m103 4 c14 -7 27 -17 29 -23 8 -20 -11
-54 -40 -73 -15 -10 -31 -21 -34 -26 -4 -5 -18 -10 -32 -10 -14 -1 -23 -5 -20
-9 2 -5 -1 -8 -8 -8 -17 0 -5 93 18 130 19 32 45 38 87 19z"/>
</g>
</svg>
