<?xml version="1.0" standalone="no"?>
<!DOCTYPE svg PUBLIC "-//W3C//DTD SVG 20010904//EN"
 "http://www.w3.org/TR/2001/REC-SVG-20010904/DTD/svg10.dtd">
<svg version="1.0" xmlns="http://www.w3.org/2000/svg"
 width="1354.000000pt" height="1500.000000pt" viewBox="0 0 1354.000000 1500.000000"
 preserveAspectRatio="xMidYMid meet">
<metadata>
Created by potrace 1.16, written by Peter Selinger 2001-2019
</metadata>
<g transform="translate(0.000000,1500.000000) scale(0.100000,-0.100000)"
fill="#000000" stroke="none">
<path d="M4070 14993 c-76 -9 -268 -56 -374 -93 -234 -81 -461 -188 -689 -327
-388 -236 -557 -375 -636 -523 -28 -52 -32 -70 -28 -107 4 -40 0 -50 -41 -111
-177 -262 -483 -1078 -508 -1356 l-7 -76 -76 -54 c-237 -167 -538 -560 -663
-866 -99 -242 -115 -446 -49 -639 51 -153 126 -287 234 -424 16 -20 35 -62 42
-94 54 -229 327 -667 617 -990 21 -24 38 -45 38 -48 0 -5 -52 14 -161 60 -34
15 -184 84 -333 155 -441 208 -838 391 -880 406 -54 19 -146 18 -175 -2 -54
-38 -61 -114 -36 -363 12 -122 13 -148 1 -165 -25 -39 -90 -96 -186 -164 -176
-125 -193 -157 -117 -228 23 -22 92 -80 152 -127 82 -64 132 -114 196 -194
191 -239 536 -610 889 -956 509 -499 818 -719 1103 -781 26 -6 27 -10 23 -44
-24 -183 -31 -551 -12 -697 3 -16 9 -86 16 -155 31 -339 90 -793 131 -1009 41
-214 126 -511 193 -676 l24 -59 -67 -47 c-37 -26 -120 -95 -185 -154 -155
-142 -484 -489 -558 -589 -161 -216 -247 -519 -235 -821 11 -259 79 -403 305
-649 48 -52 104 -121 124 -154 l36 -61 -26 -9 c-708 -256 -815 -299 -1072
-427 -304 -152 -474 -272 -555 -390 -38 -54 -38 -55 -19 -76 30 -33 60 -41
185 -48 l117 -6 -40 -65 c-31 -52 -38 -73 -36 -105 3 -33 9 -42 38 -59 30 -18
50 -20 145 -19 60 1 166 11 235 21 69 11 127 18 129 16 2 -2 -15 -24 -38 -50
-68 -78 -56 -100 53 -103 44 -1 83 -4 88 -7 18 -11 348 -3 653 15 99 6 329 18
510 26 182 8 431 20 555 25 616 29 1058 96 1256 190 85 41 165 116 195 182 30
68 31 169 2 249 -20 55 -37 83 -147 241 -63 91 -89 167 -88 255 1 63 2 65 78
171 79 109 423 542 431 542 3 0 48 -13 101 -30 210 -64 469 -106 723 -117
l145 -6 28 -91 c36 -120 81 -214 205 -429 115 -201 115 -197 65 -337 -142
-404 -162 -580 -90 -794 56 -166 185 -319 378 -446 129 -85 231 -123 332 -124
75 -1 80 0 99 27 16 20 22 46 25 100 2 40 7 75 11 80 4 4 32 0 62 -9 40 -12
66 -28 100 -64 57 -59 96 -80 165 -87 63 -7 90 7 125 64 12 21 44 63 71 94 39
46 55 58 87 63 22 3 46 9 55 12 13 5 16 -3 16 -52 0 -67 22 -123 68 -172 39
-40 84 -42 161 -7 75 35 232 192 266 267 22 49 30 56 79 77 72 29 141 91 173
155 87 169 -7 508 -206 746 l-51 61 75 60 c77 62 138 129 193 211 43 62 110
202 124 256 6 23 13 42 17 42 3 0 38 -9 76 -20 119 -34 315 -69 486 -86 208
-20 695 -15 859 10 435 66 751 182 1065 391 160 106 284 213 510 440 377 376
632 717 867 1155 170 316 314 763 393 1215 62 358 84 614 92 1056 6 329 7 346
24 342 78 -21 195 109 332 367 l55 105 21 167 c28 223 60 325 143 444 76 110
122 208 156 333 26 95 26 99 29 521 l3 425 -39 -80 c-28 -58 -47 -85 -69 -97
-23 -12 -33 -26 -38 -53 -3 -20 -8 -34 -10 -32 -6 5 -121 711 -138 845 -38
294 -43 571 -15 805 6 49 9 90 7 93 -3 2 -24 -35 -48 -83 -25 -48 -94 -161
-154 -252 l-110 -166 -16 64 c-8 36 -20 66 -26 68 -6 2 -21 -19 -34 -46 -12
-27 -41 -68 -64 -90 l-42 -41 -52 158 c-57 175 -96 326 -89 352 13 49 -37 229
-125 450 l-50 125 7 310 c7 310 1 363 -24 225 -26 -140 -103 -476 -112 -487
-6 -6 -34 -23 -63 -38 -72 -36 -82 -58 -90 -191 -7 -127 -37 -260 -72 -321
-15 -26 -59 -69 -117 -113 -50 -39 -97 -83 -103 -97 l-11 -27 -38 58 c-21 31
-43 55 -49 53 -6 -2 -23 -25 -38 -52 l-27 -50 -12 30 c-8 19 -13 79 -14 162 0
73 -3 133 -6 133 -3 0 -16 -26 -29 -57 -63 -156 -152 -307 -191 -327 -110 -55
-203 -428 -154 -621 27 -106 197 -421 209 -385 2 8 9 40 14 70 6 30 26 98 45
150 l34 95 16 -55 c8 -30 30 -109 48 -174 l34 -120 50 -11 c75 -18 100 -30
139 -69 52 -53 60 -89 48 -246 -5 -74 -8 -136 -7 -138 2 -2 15 34 30 80 15 46
50 127 78 181 48 93 52 97 83 97 37 0 35 -7 98 242 41 163 58 266 60 370 0 42
4 74 7 70 17 -19 109 -407 109 -458 0 -18 -13 -90 -29 -160 -49 -219 -56 -275
-55 -499 1 -197 3 -219 33 -355 59 -267 103 -416 120 -405 5 2 17 36 27 75 10
38 21 70 25 70 3 0 15 -21 25 -47 l19 -48 7 90 c4 55 17 121 33 170 31 89 122
274 158 319 l24 30 -5 -101 c-5 -113 10 -243 38 -315 10 -26 68 -116 130 -199
l113 -152 -16 -317 c-18 -354 -20 -365 -101 -489 -54 -84 -157 -210 -172 -211
-9 0 -13 -121 -17 -437 -5 -440 -10 -528 -47 -813 -52 -409 -108 -610 -265
-950 -299 -649 -709 -1166 -1178 -1484 -444 -301 -946 -493 -1442 -551 -175
-20 -268 -20 -740 4 -208 11 -383 17 -387 15 -16 -10 2 -22 40 -28 61 -10 656
-37 817 -38 507 -2 1070 171 1610 494 276 165 546 409 783 706 181 227 417
620 536 890 27 61 51 110 53 109 3 -4 -72 -228 -112 -332 -98 -256 -312 -629
-524 -910 -249 -331 -638 -730 -901 -925 -317 -234 -703 -385 -1128 -441 -315
-41 -757 -37 -1056 12 -112 18 -343 73 -354 84 -3 3 9 71 27 152 67 315 91
507 91 728 0 244 -34 458 -99 620 l-31 77 20 67 c34 117 52 258 54 428 0 90 2
163 3 163 1 0 34 -21 73 -46 96 -62 314 -165 429 -203 226 -75 472 -106 765
-98 418 12 889 119 1189 269 450 225 820 635 1130 1253 148 297 263 690 289
990 12 146 9 175 -17 175 -12 0 -15 -15 -15 -85 0 -273 -126 -737 -288 -1060
-175 -350 -367 -629 -582 -846 -194 -196 -343 -304 -562 -409 -138 -66 -221
-95 -388 -138 -324 -84 -545 -115 -825 -116 -434 -2 -754 84 -1101 296 l-104
63 0 40 c0 61 -28 293 -56 454 -105 624 -372 1497 -753 2461 -43 109 -47 126
-32 131 9 4 77 26 151 50 216 69 454 198 660 358 177 137 391 372 573 631 44
62 88 111 129 142 152 117 331 303 358 372 5 15 7 34 2 41 -10 20 -186 154
-255 195 -32 19 -74 49 -93 67 -43 39 -45 26 53 288 61 161 76 212 77 260 l1
60 -80 3 c-152 6 -289 -13 -420 -56 -66 -22 -160 -58 -210 -80 -159 -71 -795
-265 -1170 -357 -193 -47 -354 -79 -475 -94 -72 -9 -76 -8 -97 15 -48 52 -97
268 -128 559 -33 322 -45 901 -25 1235 43 722 32 1182 -41 1639 -125 785 -473
1410 -1019 1833 -354 273 -738 443 -1118 493 -103 14 -370 18 -462 8z m505
-47 c295 -49 583 -166 866 -351 321 -210 564 -453 759 -760 264 -414 417 -900
475 -1510 22 -233 30 -712 16 -970 -28 -523 -33 -747 -22 -1059 19 -542 64
-887 136 -1043 l25 -56 -97 6 c-54 3 -107 7 -117 9 -39 6 -26 -21 16 -33 114
-32 370 -7 702 67 396 89 1076 293 1310 394 65 28 168 65 229 84 97 29 132 34
265 40 83 4 152 3 152 -2 0 -26 -39 -149 -94 -292 -90 -237 -92 -244 -66 -280
11 -16 55 -52 98 -79 117 -77 271 -195 272 -208 1 -35 -217 -262 -343 -355
-49 -37 -87 -79 -139 -152 -122 -170 -267 -346 -378 -456 -101 -101 -109 -106
-195 -138 -175 -63 -387 -102 -561 -102 -83 0 -555 51 -638 70 -22 4 -93 14
-158 21 -109 11 -118 11 -150 -8 -59 -34 -72 -92 -42 -194 18 -60 80 -190 118
-245 13 -20 22 -42 19 -50 -3 -8 5 -16 21 -20 36 -9 329 13 454 34 59 10 102
14 102 8 0 -5 38 -106 84 -225 448 -1149 704 -2071 767 -2761 22 -249 2 -551
-48 -724 l-9 -28 -29 43 c-117 168 -451 311 -762 326 -132 7 -213 -6 -293 -47
-58 -29 -140 -108 -140 -135 0 -25 13 -18 65 37 121 125 312 149 607 74 223
-56 367 -131 466 -242 63 -70 94 -128 131 -242 100 -305 100 -712 0 -1205 -16
-81 -41 -187 -55 -234 -28 -97 -106 -273 -112 -252 -9 35 -27 59 -44 59 -11 0
-45 -18 -76 -40 -101 -73 -251 -108 -592 -141 -157 -15 -255 -19 -325 -15
-209 14 -343 37 -458 81 -97 36 -137 34 -176 -10 -58 -66 -38 -107 134 -284
145 -149 251 -233 350 -280 157 -74 323 -44 580 108 47 28 91 49 96 45 5 -3
55 22 111 55 119 71 105 75 200 -53 163 -219 235 -504 164 -650 -15 -30 -43
-69 -63 -86 -37 -33 -119 -77 -127 -69 -3 3 -1 36 5 74 11 77 3 177 -17 216
-7 14 -29 38 -48 52 -32 25 -41 27 -141 27 -118 0 -146 -9 -189 -61 -57 -67
-115 -224 -131 -350 l-7 -55 -59 -13 c-33 -6 -65 -14 -72 -17 -9 -3 -12 25
-12 108 0 103 -2 117 -27 164 -57 107 -171 173 -275 158 -104 -15 -156 -64
-188 -178 -22 -75 -15 -142 25 -243 28 -74 28 -75 7 -69 -12 4 -34 9 -49 12
-16 4 -25 11 -21 19 8 24 -27 138 -60 194 -49 82 -162 192 -232 226 -146 70
-249 35 -322 -110 -25 -48 -43 -130 -43 -190 0 -25 -4 -45 -9 -45 -19 0 -74
78 -116 165 -51 104 -75 210 -75 325 0 107 18 189 91 410 68 208 82 294 55
335 -12 19 -20 64 -27 153 -19 242 7 446 101 787 55 200 66 228 114 305 320
509 471 1205 453 2090 -14 669 -77 1075 -243 1570 -112 334 -237 624 -438
1015 -148 288 -243 453 -381 660 -149 222 -261 362 -413 513 l-124 122 128
136 c187 198 240 261 286 337 47 78 62 153 34 176 -14 12 -7 23 60 95 113 120
167 194 159 214 -6 14 -12 10 -38 -22 -152 -189 -297 -321 -505 -460 -341
-227 -769 -388 -1383 -520 -479 -103 -879 -98 -1220 14 -227 75 -383 174 -570
360 -354 353 -693 829 -800 1120 -16 45 -28 84 -26 86 1 2 36 -24 76 -56 40
-33 96 -74 125 -91 46 -28 56 -40 86 -106 42 -95 105 -193 123 -193 8 0 31
-27 52 -61 124 -201 416 -495 631 -635 182 -119 365 -192 550 -220 133 -20
475 -14 624 10 452 74 811 189 1190 382 354 179 653 397 945 688 88 87 177
170 197 183 78 52 112 139 86 218 -14 41 -46 58 -39 20 14 -83 12 -116 -10
-151 -42 -69 -157 -129 -343 -179 -99 -27 -2173 -340 -2335 -353 -53 -4 -202
-7 -331 -7 -194 1 -260 5 -379 24 -304 48 -499 115 -791 273 -213 116 -287
163 -386 247 -189 159 -351 442 -385 675 -23 155 21 349 130 571 79 160 153
275 274 425 95 118 267 289 341 337 48 32 73 35 62 7 -7 -17 74 -54 119 -54
18 0 44 9 58 20 14 11 32 20 40 20 8 0 38 25 65 55 102 111 195 349 310 790
77 292 121 508 129 628 7 111 1 141 -31 162 -23 15 -27 15 -66 -5 -56 -29 -69
-16 -46 44 58 151 241 307 649 553 383 231 734 366 1082 417 59 9 372 -4 460
-18z m-2082 -1119 c-2 -86 -5 -100 -52 -211 -99 -231 -273 -506 -321 -506 -25
0 -45 93 -36 167 10 90 166 424 256 552 42 59 127 118 145 100 6 -6 9 -51 8
-102z m-774 -3762 c50 -27 91 -54 91 -58 0 -4 -18 -27 -40 -50 l-40 -42 -21
25 c-27 31 -104 183 -91 179 6 -2 51 -26 101 -54z m3077 -179 c-19 -28 -54
-69 -76 -91 l-42 -40 -26 34 c-15 18 -39 60 -53 91 l-27 58 117 17 c64 9 121
18 126 19 24 6 14 -40 -19 -88z m-4223 -25 c40 -16 270 -122 512 -236 584
-275 727 -339 819 -369 75 -25 82 -30 168 -121 95 -100 202 -191 297 -252 93
-60 270 -140 371 -168 52 -15 105 -30 117 -33 21 -7 21 -9 -23 -117 -62 -152
-164 -457 -223 -663 -27 -95 -51 -175 -53 -177 -2 -3 -149 -10 -325 -16 -315
-11 -324 -11 -450 11 -153 27 -335 75 -469 126 -177 66 -201 81 -347 231 -245
252 -479 514 -587 657 -26 34 -98 101 -179 165 -169 135 -177 143 -159 169 16
23 54 55 128 106 98 69 181 140 201 172 23 38 24 75 3 270 -17 165 -13 216 22
251 32 32 88 30 177 -6z m1952 -255 c105 -4 233 -9 285 -11 92 -4 217 -9 505
-20 77 -3 190 -8 250 -11 146 -7 723 -89 772 -109 90 -38 119 -100 84 -179
-23 -53 -38 -62 -221 -120 -245 -80 -558 -145 -794 -167 -138 -13 -373 -6
-486 15 -193 35 -430 145 -586 272 l-41 33 -7 123 c-3 68 -9 137 -12 154 -6
30 -5 31 28 29 18 -1 119 -6 223 -9z m-277 -176 l-3 -88 -53 48 -54 47 37 74
c54 108 58 111 68 55 4 -26 6 -87 5 -136z m2440 128 c27 -30 42 -71 42 -116 0
-71 -6 -77 -108 -125 -54 -25 -98 -42 -100 -37 -10 28 116 300 139 300 3 0 15
-10 27 -22z m155 -604 c18 -9 102 -60 187 -112 135 -84 171 -112 275 -217 151
-151 253 -278 399 -497 274 -413 586 -1035 763 -1522 150 -414 221 -730 258
-1141 73 -842 16 -1550 -169 -2092 -129 -379 -293 -649 -543 -901 -57 -57
-103 -106 -103 -110 0 -3 -21 -28 -47 -54 l-47 -48 -81 0 c-260 0 -612 59
-875 147 -418 139 -777 377 -1335 884 -339 308 -488 493 -640 798 -203 405
-316 835 -400 1521 -88 726 -88 1103 1 1614 71 409 245 1013 394 1370 l33 78
41 -5 c377 -52 702 -24 1244 109 169 41 505 145 577 178 17 8 31 15 33 15 2 1
17 -6 35 -15z m-2063 -4715 c0 -7 31 -73 68 -148 168 -335 358 -567 730 -891
66 -58 121 -109 121 -114 1 -5 -51 -62 -114 -127 -85 -86 -122 -133 -140 -173
-32 -73 -56 -207 -50 -281 2 -33 5 -130 5 -215 2 -178 -8 -223 -68 -316 -190
-293 -476 -315 -998 -76 -222 102 -281 140 -352 223 -157 185 -210 301 -231
507 -29 278 64 631 222 842 137 182 548 596 726 731 66 50 81 57 81 38z m-511
-2537 c156 -187 312 -286 647 -412 296 -111 286 -195 -40 -354 -270 -132 -637
-251 -839 -272 l-67 -7 0 30 c0 44 -56 122 -114 158 -65 39 -142 41 -232 3
l-60 -25 0 86 c1 71 -3 93 -21 128 -36 67 -65 81 -195 96 l-113 12 -2 31 c-2
51 -30 92 -89 131 l-55 36 73 34 c193 90 332 148 548 227 129 47 289 106 355
130 66 24 125 45 130 45 6 0 39 -34 74 -77z m-1158 -411 c57 -35 89 -76 89
-110 0 -37 -5 -42 -105 -109 -49 -34 -121 -89 -158 -122 l-68 -62 -142 4
c-130 4 -197 17 -197 37 0 27 96 128 182 193 83 61 316 198 338 198 9 0 36
-13 61 -29z m259 -191 c78 -10 88 -13 117 -44 45 -49 58 -104 44 -191 -7 -38
-13 -70 -14 -70 -177 -108 -165 -104 -339 -130 -196 -30 -362 -33 -397 -9 -18
13 -22 22 -17 47 9 45 63 124 106 155 21 15 71 56 111 91 41 36 108 87 149
113 83 53 95 55 240 38z m475 -284 c59 -35 100 -103 91 -150 -4 -19 -25 -59
-48 -90 -34 -46 -47 -56 -72 -57 -17 0 -85 -4 -151 -8 -129 -9 -435 6 -435 21
0 24 113 124 199 177 119 73 171 99 241 123 68 22 117 18 175 -16z m6142 -90
c33 -30 38 -40 44 -97 8 -83 -15 -250 -42 -307 -28 -57 -180 -206 -243 -237
-65 -32 -96 -32 -128 3 -46 49 -58 85 -58 177 0 148 56 351 120 433 42 53 67
62 173 62 97 0 98 0 134 -34z m-805 -40 c142 -51 205 -203 163 -392 -24 -108
-96 -214 -144 -214 -97 0 -187 77 -240 203 -58 140 -60 251 -8 328 51 75 143
105 229 75z m-629 -31 c95 -48 220 -189 252 -285 14 -41 14 -66 5 -176 -14
-160 -19 -168 -105 -161 -33 3 -95 19 -138 35 -85 34 -252 140 -306 196 l-34
35 6 88 c9 141 58 251 129 287 47 24 122 16 191 -19z"/>
<path d="M5316 13689 c-119 -28 -287 -163 -394 -318 -47 -67 -55 -91 -33 -91
5 0 38 40 75 89 122 165 253 264 381 291 36 7 55 16 55 26 0 16 -25 17 -84 3z"/>
<path d="M5314 13319 c-62 -24 -170 -119 -223 -198 -136 -200 -335 -760 -403
-1131 -35 -195 -25 -450 19 -450 12 0 14 8 11 35 l-4 36 40 -48 c220 -262 499
-333 878 -225 73 21 216 108 242 147 8 13 24 50 35 83 40 119 51 231 57 592 7
382 2 437 -56 612 -87 260 -262 490 -417 548 -67 25 -113 25 -179 -1z m74 -95
c15 -11 37 -40 50 -64 53 -106 6 -379 -108 -616 -59 -121 -127 -201 -206 -240
-48 -23 -62 -26 -116 -20 -99 10 -168 69 -168 142 0 30 70 234 139 407 71 178
154 314 233 382 40 34 47 36 96 33 31 -3 64 -13 80 -24z m539 -1259 c-5 -219
-22 -334 -63 -425 -21 -47 -35 -61 -97 -102 -40 -26 -84 -51 -99 -57 l-27 -10
34 48 c49 68 110 202 134 296 42 163 111 457 112 478 2 20 2 19 6 -3 3 -14 3
-115 0 -225z"/>
<path d="M8370 9357 c0 -13 33 -16 203 -19 179 -3 207 -6 248 -25 26 -11 50
-26 53 -32 11 -18 26 -13 26 10 0 15 -15 27 -57 47 -56 26 -64 27 -265 30
-178 3 -208 1 -208 -11z"/>
<path d="M8890 9244 c-6 -14 -10 -28 -10 -31 0 -4 -38 -77 -85 -163 -47 -86
-85 -164 -85 -173 0 -33 19 -16 54 46 l36 62 0 -35 c0 -55 28 -151 56 -191 39
-57 86 -71 168 -48 83 23 186 161 186 250 0 61 -48 157 -111 224 -51 54 -53
55 -109 55 -42 0 -59 4 -64 15 -8 23 -25 18 -36 -11z"/>
<path d="M674 9330 c-172 -136 -213 -208 -165 -286 24 -39 66 -71 156 -118 79
-42 169 -71 192 -62 24 9 -3 36 -36 36 -39 0 -202 82 -250 125 -34 31 -41 44
-41 75 0 52 36 97 154 194 55 44 101 87 104 94 9 28 -31 8 -114 -58z"/>
</g>
</svg>
