<?xml version="1.0" standalone="no"?>
<!DOCTYPE svg PUBLIC "-//W3C//DTD SVG 20010904//EN"
 "http://www.w3.org/TR/2001/REC-SVG-20010904/DTD/svg10.dtd">
<svg version="1.0" xmlns="http://www.w3.org/2000/svg"
 width="225.000000pt" height="224.000000pt" viewBox="0 0 225.000000 224.000000"
 preserveAspectRatio="xMidYMid meet">
<metadata>
Created by potrace 1.16, written by Peter Selinger 2001-2019
</metadata>
<g transform="translate(0.000000,224.000000) scale(0.100000,-0.100000)"
fill="#000000" stroke="none">
<path d="M531 2123 c-13 -3 -45 -26 -70 -51 -46 -46 -71 -101 -71 -154 l0 -25
-47 23 c-51 26 -97 31 -110 12 -4 -7 -10 -58 -14 -113 -4 -55 -10 -110 -14
-123 -6 -18 -4 -21 10 -16 16 7 17 1 13 -50 -6 -68 -25 -92 -95 -115 -58 -19
-73 -44 -73 -121 0 -119 50 -234 134 -306 22 -20 80 -54 128 -77 l87 -42 -6
-34 c-3 -19 -6 -73 -7 -120 0 -72 5 -102 33 -186 22 -68 34 -128 38 -186 6
-85 5 -86 -26 -121 -38 -44 -39 -57 -3 -91 98 -92 115 -106 123 -101 5 3 9 1
9 -5 0 -6 11 -13 24 -17 32 -8 103 25 140 65 35 36 42 38 49 12 7 -28 81 -71
120 -71 19 0 56 8 83 19 27 10 87 24 133 30 85 11 131 30 131 55 0 7 9 24 19
38 19 23 27 25 149 31 201 11 325 50 452 146 47 35 62 41 105 41 193 1 288
237 150 375 -22 22 -49 45 -60 51 -20 12 -20 12 2 35 31 34 43 72 43 135 0 67
-24 117 -79 167 -58 53 -117 79 -187 85 l-62 5 -7 43 c-8 57 -40 102 -99 139
-47 28 -55 30 -150 30 -81 0 -110 -5 -147 -22 -34 -15 -51 -18 -64 -11 -9 6
-41 8 -71 6 l-53 -5 26 44 c14 24 23 50 20 58 -13 33 -154 85 -233 85 -52 0
-59 8 -29 32 31 24 50 85 41 132 -12 61 -92 136 -144 136 -11 0 -27 11 -36 25
-24 37 -75 65 -118 65 -20 0 -52 9 -70 19 -37 22 -82 31 -117 24z m98 -27 l24
-13 -27 -7 c-33 -8 -102 -70 -123 -110 -22 -41 -21 -132 1 -174 23 -44 29 -37
11 13 -19 55 -18 102 4 150 35 76 95 115 177 115 49 0 76 -11 112 -43 l22 -21
-52 -13 c-90 -23 -158 -93 -158 -162 0 -40 20 -101 33 -101 5 0 6 8 2 18 -21
52 -26 85 -15 116 33 100 189 150 285 91 l40 -24 -48 -1 c-57 0 -117 -28 -141
-65 -10 -15 -23 -55 -29 -90 -11 -56 -17 -68 -54 -100 l-43 -36 6 30 c7 35 3
37 -29 17 -31 -20 -217 -86 -243 -86 -12 0 -45 -8 -74 -17 -61 -20 -70 -13
-70 54 0 30 7 50 26 73 15 17 23 34 20 38 -4 3 -18 -7 -31 -23 -30 -38 -42
-27 -20 19 39 81 114 108 183 66 32 -20 45 -13 18 9 -8 7 -19 34 -26 60 -17
71 0 124 60 183 42 43 52 48 91 48 24 -1 55 -7 68 -14z m513 -445 c32 -12 60
-25 62 -29 2 -4 -31 -8 -73 -9 -91 -2 -168 -26 -238 -74 l-48 -34 34 -3 c33
-3 33 -4 12 -18 -24 -17 -27 -52 -10 -116 10 -38 9 -48 -9 -84 -61 -120 -172
-205 -315 -240 -97 -24 -260 -16 -309 14 -102 63 -163 172 -175 310 l-6 75 24
-16 c29 -21 92 -22 109 -2 17 20 4 50 -28 65 l-27 13 25 6 c14 4 34 21 46 38
16 25 22 28 30 16 8 -12 15 -12 54 2 25 9 86 20 136 24 50 4 97 11 105 15 8 4
4 -1 -8 -12 -13 -11 -23 -23 -23 -26 0 -24 140 20 186 58 52 42 115 55 264 52
101 -2 136 -7 182 -25z m484 -136 c52 -16 79 -35 107 -75 26 -37 21 -39 -30
-13 -43 22 -57 24 -129 20 -64 -4 -93 -11 -131 -32 -152 -82 -227 -184 -259
-350 l-7 -40 -7 30 c-13 53 -10 150 5 202 26 87 113 196 188 235 75 38 183 47
263 23z m-323 -21 c22 -8 -56 -84 -85 -84 -35 0 -125 -49 -174 -95 -38 -36
-44 -39 -44 -21 0 14 20 37 56 66 31 24 65 57 76 73 39 55 117 82 171 61z
m639 -215 c59 -29 105 -65 119 -92 10 -20 9 -19 -17 5 -16 14 -47 31 -69 37
-59 16 -200 13 -266 -5 -67 -19 -150 -81 -210 -156 -29 -37 -40 -46 -34 -28
40 137 138 233 266 260 65 13 162 4 211 -21z m-962 -187 c19 -25 44 -71 56
-101 14 -33 23 -47 26 -36 2 14 21 3 94 -53 98 -76 160 -141 194 -206 12 -24
14 -31 3 -16 -49 71 -113 117 -272 199 -90 46 -182 100 -203 119 l-38 35 47
52 c27 29 50 53 53 54 3 0 21 -21 40 -47z m1047 -197 c56 -17 115 -68 131
-114 l11 -31 -37 29 c-87 70 -221 91 -312 50 -25 -11 -72 -41 -104 -67 -62
-48 -62 -46 -14 25 71 105 196 146 325 108z m-1469 -49 c22 -24 48 -58 57 -76
16 -30 16 -37 1 -96 -9 -35 -16 -75 -16 -89 0 -32 -4 -32 -50 5 -52 41 -114
126 -106 146 3 8 2 23 -3 33 -9 15 7 83 25 113 13 21 54 5 92 -36z m130 -168
c47 -79 83 -282 66 -373 -7 -41 -14 -43 -45 -11 -13 13 -28 22 -35 19 -6 -2
-14 6 -18 19 -6 21 -7 22 -20 6 -12 -16 -14 -16 -26 7 -25 47 9 385 39 385 4
0 21 -24 39 -52z m-140 -128 c17 -35 28 -77 30 -118 l4 -62 -28 10 c-16 6 -32
17 -36 23 -6 9 -10 8 -17 -2 -11 -17 -16 0 -26 85 -3 28 -17 84 -30 125 -14
40 -25 80 -25 88 0 26 99 -89 128 -149z"/>
<path d="M517 1501 c-24 -22 -49 -51 -57 -65 -12 -23 -11 -29 14 -65 25 -36
77 -71 105 -71 26 0 91 42 119 76 30 36 30 38 16 73 -22 56 -67 91 -114 91
-33 0 -48 -7 -83 -39z"/>
</g>
</svg>
