<?xml version="1.0" standalone="no"?>
<!DOCTYPE svg PUBLIC "-//W3C//DTD SVG 20010904//EN"
 "http://www.w3.org/TR/2001/REC-SVG-20010904/DTD/svg10.dtd">
<svg version="1.0" xmlns="http://www.w3.org/2000/svg"
 width="212.000000pt" height="238.000000pt" viewBox="0 0 212.000000 238.000000"
 preserveAspectRatio="xMidYMid meet">
<metadata>
Created by potrace 1.16, written by Peter Selinger 2001-2019
</metadata>
<g transform="translate(0.000000,238.000000) scale(0.100000,-0.100000)"
fill="#000000" stroke="none">
<path d="M1021 2265 c-71 -16 -179 -63 -229 -102 -51 -39 -29 -40 25 -1 71 50
148 81 243 96 62 9 206 0 251 -17 16 -6 42 -16 59 -22 16 -6 27 -16 23 -22 -4
-6 -1 -7 6 -3 16 11 78 -32 145 -99 54 -54 113 -141 103 -151 -3 -3 -10 4 -17
15 -20 39 -82 69 -147 73 -34 1 -59 0 -57 -4 6 -10 -28 -17 -107 -20 -54 -3
-69 0 -77 13 -8 12 -7 20 1 28 9 9 9 11 -3 7 -10 -4 -23 6 -38 28 -22 33 -24
34 -50 20 -15 -8 -32 -14 -38 -14 -6 0 -28 -13 -49 -29 -38 -28 -41 -29 -70
-14 -29 15 -75 59 -75 72 0 9 -35 14 -82 13 -94 -1 -98 -3 -138 -56 -38 -52
-70 -108 -70 -123 1 -4 10 10 22 32 28 54 45 73 97 107 55 34 116 38 153 8 47
-37 61 -90 67 -267 7 -184 15 -206 88 -232 37 -13 42 -13 83 10 24 13 46 31
48 39 3 10 -4 7 -20 -7 -53 -50 -112 -50 -157 -2 -33 35 -25 46 9 14 38 -37
91 -40 135 -8 17 11 34 20 40 19 5 0 22 36 36 81 31 94 57 142 108 196 19 20
30 37 23 37 -16 0 -83 -87 -106 -138 l-19 -43 -14 33 c-44 104 -130 123 -209
47 l-31 -30 -6 73 c-4 40 -9 86 -13 101 l-6 28 35 -17 c35 -17 36 -17 88 15
91 57 91 57 128 -4 l32 -53 72 -4 c45 -2 80 1 92 9 11 7 39 15 62 19 82 13
158 -46 207 -161 l17 -40 -6 50 c-14 129 -132 278 -275 348 -128 63 -257 80
-389 52z m5 -466 c-14 -17 -24 -35 -21 -40 5 -8 98 -39 116 -39 4 0 6 9 4 19
-3 14 1 18 11 14 9 -3 12 -12 8 -25 -5 -17 -3 -18 14 -9 27 14 32 14 32 -3 0
-8 -13 -28 -29 -45 -23 -24 -37 -31 -68 -31 -87 1 -135 101 -78 163 35 37 43
34 11 -4z"/>
<path d="M787 1989 c-45 -26 -71 -138 -45 -194 37 -81 130 -4 130 107 -1 80
-36 115 -85 87z"/>
<path d="M1444 1878 c-28 -13 -61 -74 -70 -124 -9 -58 16 -114 51 -114 41 0
65 18 86 63 25 57 25 127 -2 161 -22 28 -32 30 -65 14z"/>
<path d="M1876 1725 c-33 -13 -82 -39 -110 -56 -28 -18 -64 -39 -79 -48 -37
-20 -179 -157 -202 -194 -59 -93 -331 -141 -500 -89 -167 51 -284 157 -343
312 -12 30 -21 49 -21 43 -1 -24 36 -110 67 -156 18 -25 32 -48 32 -50 0 -3
-12 -8 -27 -12 -16 -3 -35 -13 -45 -21 -14 -13 -25 -14 -77 -3 -97 19 -301 7
-381 -22 -88 -32 -89 -48 -11 -126 103 -104 245 -163 389 -163 l75 0 -7 -52
c-3 -29 -6 -63 -6 -74 l0 -21 -40 20 -41 20 -24 -23 c-14 -13 -25 -33 -24 -44
0 -19 1 -19 8 -3 5 13 10 1 19 -40 7 -33 19 -68 27 -79 10 -13 8 -1 -6 40 -22
65 -22 131 0 131 9 0 19 -20 26 -55 12 -56 33 -114 34 -94 1 6 -6 31 -15 57
-8 25 -14 56 -12 69 3 21 9 18 61 -36 128 -132 195 -376 102 -376 -38 0 -78
24 -122 74 -49 55 -93 136 -110 201 l-13 50 5 -44 c11 -90 109 -242 178 -274
51 -24 94 -22 108 6 6 12 13 23 14 25 2 2 20 -5 42 -16 76 -39 174 -55 298
-50 l115 5 0 -43 c0 -98 83 -234 152 -249 26 -6 34 -3 54 21 49 62 55 178 14
287 -26 67 -25 73 9 112 27 32 53 89 65 148 6 26 9 27 67 27 101 0 157 32 194
113 18 39 35 55 86 86 35 21 73 51 83 65 19 24 19 27 4 43 -10 10 -39 18 -72
21 -54 4 -55 5 -41 25 8 12 15 30 15 41 0 17 -5 18 -60 13 -33 -4 -60 -4 -60
-1 0 3 24 33 54 66 83 91 168 274 165 357 0 14 -7 -2 -14 -35 -50 -230 -226
-438 -443 -524 -27 -10 -30 -14 -17 -24 20 -15 39 -147 32 -229 -7 -75 -39
-156 -82 -200 -15 -15 -25 -34 -22 -41 9 -22 -23 -73 -58 -92 -27 -14 -41 -16
-71 -8 -47 11 -53 26 -17 42 l28 12 -30 -7 c-16 -3 -48 -9 -70 -14 -56 -11
-182 -11 -246 1 -30 6 -81 23 -114 39 l-60 28 -12 63 c-15 78 -59 169 -114
235 l-41 50 6 70 c7 77 22 141 34 149 5 3 28 0 52 -6 56 -14 141 2 222 43 l59
30 47 -42 c26 -23 67 -51 91 -61 57 -26 149 -34 205 -18 58 16 123 71 135 115
8 31 1 99 -13 112 -21 21 132 177 252 257 92 61 205 109 243 104 15 -3 26 -1
23 4 -9 15 -58 8 -118 -17z m-1113 -289 c38 -40 166 -126 187 -126 8 0 23 -7
33 -14 17 -13 12 -17 -50 -48 -61 -30 -77 -33 -153 -33 -78 0 -88 2 -123 29
-23 17 -36 35 -33 43 3 8 2 12 -3 9 -5 -3 -12 1 -15 10 -4 10 -2 13 7 8 9 -5
9 -4 0 7 -24 25 -15 66 22 103 19 19 44 36 57 39 13 2 26 5 31 6 4 0 22 -14
40 -33z m-163 -2 c7 -7 6 -20 -5 -42 -24 -46 -11 -96 37 -144 38 -38 38 -39
23 -68 -15 -29 -18 -30 -88 -30 -89 0 -171 21 -251 63 -64 34 -186 140 -186
162 0 21 24 34 101 55 61 16 100 20 216 17 83 -1 147 -7 153 -13z m875 -151
c-7 -41 -79 -117 -101 -109 -7 3 -14 0 -17 -7 -2 -8 -29 -11 -78 -11 -84 1
-149 27 -215 88 l-37 34 46 -11 c25 -5 45 -13 43 -16 -2 -3 48 -3 112 0 125 6
188 25 227 68 23 27 30 15 20 -36z m324 -110 c29 -72 30 -82 21 -137 -6 -36
-19 -71 -35 -92 -28 -37 -79 -68 -98 -60 -7 2 -5 5 4 5 18 1 18 2 26 90 5 70
-7 129 -38 173 l-19 26 48 36 c26 19 50 36 53 36 4 0 21 -35 38 -77z m-303
-702 c7 -54 -10 -161 -25 -161 -12 0 -29 43 -36 94 -4 25 -12 49 -17 52 -12 8
-3 -39 21 -113 18 -53 13 -73 -16 -73 -15 0 -52 68 -69 130 -7 26 -13 36 -13
23 -1 -13 8 -46 19 -75 11 -29 20 -55 20 -57 0 -10 -43 36 -61 66 -36 58 -67
205 -37 175 7 -7 32 -12 56 -12 38 0 49 5 81 38 l36 37 17 -35 c9 -19 20 -59
24 -89z"/>
<path d="M771 1134 c-25 -21 -31 -33 -31 -66 0 -50 13 -74 51 -94 79 -40 163
47 124 129 -28 60 -93 74 -144 31z m115 -8 c38 -32 39 -86 2 -123 -55 -54
-138 -18 -138 59 0 77 78 114 136 64z"/>
</g>
</svg>
