<?xml version="1.0" standalone="no"?>
<!DOCTYPE svg PUBLIC "-//W3C//DTD SVG 20010904//EN"
 "http://www.w3.org/TR/2001/REC-SVG-20010904/DTD/svg10.dtd">
<svg version="1.0" xmlns="http://www.w3.org/2000/svg"
 width="225.000000pt" height="225.000000pt" viewBox="0 0 225.000000 225.000000"
 preserveAspectRatio="xMidYMid meet">
<metadata>
Created by potrace 1.16, written by Peter Selinger 2001-2019
</metadata>
<g transform="translate(0.000000,225.000000) scale(0.100000,-0.100000)"
fill="#000000" stroke="none">
<path d="M531 2154 c-13 -16 -30 -45 -38 -64 -25 -59 -73 -223 -72 -250 0 -14
10 16 23 65 25 94 65 202 91 242 20 30 42 29 128 -8 122 -51 240 -134 299
-207 l37 -47 -67 -61 c-117 -107 -168 -222 -159 -360 l4 -71 -43 32 c-47 36
-112 51 -159 35 -29 -10 -29 -10 7 -5 58 9 125 -13 169 -55 52 -49 50 -68 -3
-30 -75 54 -174 38 -241 -40 -110 -129 -32 -306 128 -287 56 6 100 38 130 95
21 39 24 42 19 17 -4 -26 -4 -27 7 -11 6 10 13 41 16 70 2 28 5 58 6 67 1 12
16 2 51 -32 77 -76 169 -97 270 -63 95 32 149 122 129 211 l-10 41 66 7 c88 9
148 24 162 41 10 12 6 12 -23 0 -19 -8 -81 -20 -138 -26 -108 -11 -161 -32
-205 -80 -13 -15 -2 -10 35 14 80 53 100 47 100 -30 0 -79 -49 -141 -132 -168
-63 -20 -92 -20 -149 -1 -64 22 -117 69 -144 129 -51 109 -57 186 -24 286 26
79 59 128 136 202 60 57 91 74 193 109 46 16 49 19 17 14 -21 -3 -58 -15 -83
-26 l-46 -19 -56 58 c-99 102 -280 213 -368 228 -37 5 -43 3 -63 -22z m195
-1026 c14 -14 13 -18 -18 -40 -57 -43 -130 -45 -182 -4 l-28 23 23 23 c22 20
32 21 107 18 57 -3 88 -9 98 -20z"/>
<path d="M561 2079 c1 -8 -10 -39 -24 -69 -39 -82 -57 -164 -62 -272 l-3 -97
45 35 c55 42 167 108 228 134 l46 20 -32 47 c-70 104 -205 240 -198 202z"/>
<path d="M2140 1498 c97 -49 104 -62 69 -130 -68 -135 -191 -279 -295 -346
-39 -25 -42 -31 -54 -97 -17 -98 -73 -242 -121 -311 -38 -54 -176 -204 -189
-204 -3 0 -4 35 -2 77 5 98 -6 91 -14 -8 -6 -79 -33 -155 -59 -165 -21 -8 -68
12 -96 42 -12 13 -38 55 -56 92 -19 38 -30 54 -27 37 10 -43 42 -106 71 -137
l25 -26 -28 -17 -29 -16 30 6 c17 3 35 6 40 5 79 -4 97 -8 125 -28 17 -13 45
-44 61 -70 16 -25 29 -40 29 -33 0 17 -54 88 -92 122 -27 24 -29 29 -17 50 7
13 54 65 104 114 107 105 135 140 177 226 39 82 64 157 78 241 11 64 13 67 63
102 111 75 190 166 261 297 50 93 55 118 29 141 -22 19 -108 63 -143 72 -14 4
13 -12 60 -36z"/>
<path d="M1798 1443 c-16 -2 -28 -6 -28 -7 0 -2 13 -32 29 -67 25 -56 65 -209
73 -278 3 -21 13 -13 97 69 51 51 113 123 137 161 24 37 52 69 62 71 22 5 -76
35 -153 48 -59 10 -163 11 -217 3z"/>
<path d="M220 1238 c-7 -29 -15 -99 -17 -154 l-6 -102 -68 -4 c-72 -4 -121
-28 -127 -63 -6 -27 122 -145 191 -178 32 -15 63 -27 71 -27 7 0 18 -12 25
-27 20 -44 78 -125 126 -177 25 -26 45 -50 45 -52 0 -2 -21 -12 -47 -24 -61
-27 -141 -88 -159 -122 -25 -47 -18 -86 19 -109 28 -18 44 -20 137 -16 124 5
192 24 255 72 44 34 46 35 82 20 111 -43 187 -56 309 -53 114 2 122 1 145 -21
82 -79 197 -126 307 -126 68 0 76 2 98 28 13 15 24 33 24 40 -1 7 -7 0 -15
-14 -10 -18 -29 -30 -59 -39 -85 -23 -205 11 -307 88 l-62 46 39 18 c43 20 38
20 -76 -3 -74 -15 -217 -6 -314 21 -74 20 -183 67 -213 92 -7 6 -13 7 -13 2 0
-5 19 -21 42 -35 l41 -27 -54 -36 c-64 -42 -156 -66 -254 -66 -138 0 -173 57
-90 148 32 37 123 90 162 96 10 2 31 -6 46 -16 45 -32 42 -14 -4 23 -65 51
-164 173 -196 242 -65 136 -64 134 -58 105 3 -14 8 -34 12 -44 5 -15 2 -16
-23 -10 -75 19 -203 123 -217 177 -9 33 36 54 118 54 l70 0 7 -35 c4 -19 5 15
2 76 -4 78 -1 135 10 194 18 93 15 121 -4 38z"/>
<path d="M1529 1144 c32 -27 71 -93 71 -124 0 -8 -9 3 -19 25 -34 75 -95 110
-169 98 -154 -25 -223 -224 -114 -336 40 -42 111 -68 157 -59 39 7 106 77 127
132 11 31 17 38 17 22 1 -30 -40 -110 -75 -146 -40 -40 -83 -56 -149 -56 -114
0 -191 69 -221 200 l-13 55 5 -50 c10 -95 62 -168 144 -203 49 -20 135 -16
187 9 105 51 164 204 127 329 -20 69 -40 97 -78 116 l-31 15 34 -27z m-50
-285 c28 -6 53 -15 56 -19 9 -15 -18 -49 -51 -65 -59 -28 -124 -15 -169 35
-20 22 -20 22 0 33 19 12 63 23 97 26 9 0 40 -4 67 -10z"/>
</g>
</svg>
